<?xml version="1.0" standalone="no"?>
<!DOCTYPE svg PUBLIC "-//W3C//DTD SVG 20010904//EN"
 "http://www.w3.org/TR/2001/REC-SVG-20010904/DTD/svg10.dtd">
<svg version="1.0" xmlns="http://www.w3.org/2000/svg"
 width="260.000000pt" height="260.000000pt" viewBox="0 0 260.000000 260.000000"
 preserveAspectRatio="xMidYMid meet">
<metadata>
Created by potrace 1.14, written by Peter Selinger 2001-2017
</metadata>
<g transform="translate(0.000000,260.000000) scale(0.100000,-0.100000)"
fill="#000000" stroke="none">
<path d="M1105 2485 c-292 -54 -540 -195 -720 -410 -22 -26 -45 -53 -50 -59
-21 -22 -92 -142 -119 -201 -80 -170 -116 -330 -116 -520 0 -103 2 -120 27
-255 23 -126 138 -374 218 -467 110 -129 205 -221 265 -254 14 -8 27 -17 30
-20 30 -39 302 -155 405 -173 17 -3 41 -9 55 -12 57 -14 316 -13 397 1 149 27
285 78 429 161 27 15 51 31 54 34 3 3 24 20 48 36 232 169 408 462 456 762 67
415 -89 836 -409 1108 -139 118 -310 205 -500 253 -115 29 -352 37 -470 16z
m375 -99 c14 -3 39 -8 55 -12 96 -18 250 -80 340 -137 28 -17 52 -34 55 -37 3
-3 17 -13 31 -22 45 -29 130 -111 189 -183 356 -436 324 -1077 -74 -1470 -45
-44 -102 -93 -126 -110 -25 -16 -47 -33 -50 -36 -3 -3 -39 -24 -80 -47 -88
-48 -223 -95 -332 -114 -77 -15 -319 -17 -368 -3 -14 3 -41 9 -60 12 -43 7
-191 58 -245 85 -316 159 -538 459 -598 808 -19 106 -15 301 7 405 44 203 146
394 291 542 50 51 96 93 102 93 6 0 13 4 15 8 4 13 123 92 137 92 6 0 11 5 11
10 0 5 3 9 8 8 4 0 30 10 57 23 28 13 52 24 55 24 3 0 29 9 58 19 110 38 221
53 362 50 74 -1 146 -5 160 -8z"/>
<path d="M1541 2138 c-136 -23 -253 -146 -290 -303 -7 -28 -13 -100 -15 -160
l-3 -110 -34 2 c-19 2 -99 3 -179 4 -226 2 -332 -32 -441 -140 -186 -187 -159
-442 69 -639 167 -145 358 -205 550 -174 l52 9 0 -161 1 -161 48 -37 48 -37
-4 213 -3 214 57 23 c57 23 193 109 268 168 49 39 205 191 205 200 0 3 -16 19
-35 34 l-35 28 -89 -88 c-96 -96 -212 -183 -305 -232 -33 -17 -61 -29 -62 -28
-2 1 -4 158 -7 349 l-3 347 35 -5 c67 -9 215 -10 280 -2 133 17 243 97 299
216 70 152 -10 337 -187 430 -81 43 -141 54 -220 40z m177 -122 c50 -26 111
-85 134 -130 40 -79 19 -196 -48 -260 -35 -34 -115 -72 -169 -81 -54 -8 -255
-6 -297 3 -11 3 -1 223 12 272 23 89 90 173 164 206 41 19 160 13 204 -10z
m-568 -541 c41 -3 76 -8 79 -10 4 -4 6 -88 14 -547 l4 -197 -51 -7 c-209 -30
-364 24 -517 179 -152 155 -165 321 -36 459 111 118 225 146 507 123z"/>
</g>
</svg>
